# xmcd
#
# Track frame offsets:
#	150
#	13822
#	28770
#	47850
#	62720
#	77145
#	91267
#	105012
#	121960
#	141395
#	157047
#	171380
#	185010
#	203120
#	216227
#	231062
#	257150
#	269452
#	286262
#	308330
#
# Disc length: 4370 seconds
#
# Revision: 0
# Processed by: cddbd v1.4PL0 Copyright (c) Steve Scherf et al.
# Submitted via: dBpowerAMP V4.0
#
DISCID=1e111014
DTITLE=Various Artist - Brewed In Texas
DYEAR=2002
DGENRE=Country
TTITLE0=Stayin' Out Late - Cory Morrow
TTITLE1=One Bud Wiser - John Rich
TTITLE2=Sangria Wine (Live) - Jerry Jeff Walker
TTITLE3=Juke Joint Jumpin' - Wayne Hancock
TTITLE4=Ballad of the Devil's Backbone Tavers - Todd Snider
TTITLE5=Dirnk Your Whisky Down - Reckless Kelly
TTITLE6=Horseshoe Lounge - Slaid Cleaves
TTITLE7=Forget Thinkin' - Beaver Nelson
TTITLE8=Turns to Tears - Chris Wall
TTITLE9=Whiskey Bent and Hell Bound - Cooder Graw
TTITLE10=Raise Hell Drink Beer - Eleven Hundred Springs
TTITLE11=Whiskey River - Cross Canadian Ragweed
TTITLE12=The Everclear Song - Roger Creager
TTITLE13=The Honky-Tonk Life I Lead - John Evans
TTITLE14=50 Dollars and a Flask of Crown - Bleu Edmondson w/ Matt Powell
TTITLE15=Una Mas Cerveza - Tommy Alverson
TTITLE16=Ol' Milwaukee's Best - Adam Carroll
TTITLE17=Quervo's Gold - Rusty Weir
TTITLE18=Barroom Lament - Hayes Carll
TTITLE19=I Think I'll Just Stay Here and Drink - Kevin Fowler, Jason Boland, and Clay Baker w/ Seth James
EXTD=Texas Artists\nby Compadre Records\nwww.compadrerecords.com\nwww.brewedintexas.com\n\nPat Joyce
EXTT0=
EXTT1=
EXTT2=
EXTT3=
EXTT4=
EXTT5=
EXTT6=
EXTT7=
EXTT8=
EXTT9=
EXTT10=
EXTT11=
EXTT12=
EXTT13=
EXTT14=
EXTT15=
EXTT16=
EXTT17=
EXTT18=
EXTT19=
PLAYORDER=
